# xmcd
#
# Track frame offsets: 
#        150
#        9463
#        29419
#        45614
#        63414
#
# Disc length: 1055 seconds
#
# Revision: 0
# Processed by: cddbd v1.5.2PL0 Copyright (c) Steve Scherf et al.
# Submitted via: ExactAudioCopy v0.99pb4
#
DISCID=38041d05
DTITLE=Ryan Bingham - Dead Horses 5 Track Cd Sampler
DYEAR=2006
DGENRE=Country
TTITLE0=Boracho Station
TTITLE1=Tears
TTITLE2=Big Country Sky
TTITLE3=Don't Wait For Me
TTITLE4=Ever Wonder Why
EXTD=
EXTT0=
EXTT1=
EXTT2=
EXTT3=
EXTT4=
PLAYORDER=
